<svg xmlns="http://www.w3.org/2000/svg" xml:space="preserve" fill-rule="evenodd"
	stroke-linecap="round" stroke-linejoin="round" stroke-miterlimit="1.5" clip-rule="evenodd"
	viewBox="0 0 112 540"><g transform="translate(-72 -45)"><path fill="none" d="M72 45h112v540H72z"/><clipPath id="a"><path d="M72 45h112v540H72z"/></clipPath><g clip-path="url(#a)"><path fill="#fff" stroke="#000" stroke-width="7.479406" d="m147.78 423.7-9.6 102.91s-11.72 1.79-8.4 16.18c3.34 14.39 7 14.57 7 14.57l-17.22 17.2-15.85-21.2s20.33-14.4 6.45-26.7l9.75-104.48z"/><path fill="none" stroke="#000" stroke-width="7.479406" d="m139.2 515.9-27.86-1.76m1.9-20.34 27.7 3.28"/><path stroke="#000" stroke-width="7.4763174" d="m143.23 396.65 9.06 32.25-.4 13.15-39.47-3.18.46-7.35 11.75-37.11z"/><path fill="none" stroke="#000" stroke-width="15" d="M128 20s22.38 126.15 8 195c-14.39 68.85-4 192-4 192"/></g></g></svg>